<svg xmlns="http://www.w3.org/2000/svg" width="70" height="70" viewBox="0 0 70 70" style="width: 100%; height: 100%;"><desc>Made with illustrio</desc>
  
<defs fill="none" stroke="none"><filter id="Sivjjwi8ntr6" filterUnits="userSpaceOnUse"><feGaussianBlur stdDeviation="1"></feGaussianBlur></filter></defs><g class="shadow" transform="matrix(1,0,0,1,0,2)"><g fill="none" fill-rule="evenodd" stroke="none" filter="url('#Sivjjwi8ntr6')" style="fill-opacity: 0.8;" class="secondary-fill">
    
    
  </g><g fill="none" transform="translate(21 21)" stroke="none" filter="url('#Sivjjwi8ntr6')" style="fill-opacity: 0.8;" class="secondary-fill">
      <path d="M16.1 10L13 10 13 13 16.1 13C16.9 13 17.8 12.5 17.8 11.5 17.9 10.5 16.9 10 16.1 10L16.1 10zM16.1 14L13 14 13 18 16.1 18C17 18 17.8 16.9 17.8 16 17.8 15.1 17 14 16.1 14L16.1 14z" fill="none" stroke="none" filter="url('#Sivjjwi8ntr6')" style="fill-opacity: 0.8;" class="secondary-fill"></path>
      <path d="M14,0.7 C6.7,0.7 0.7,6.6 0.7,14 C0.7,21.4 6.7,27.3 14,27.3 C21.3,27.3 27.3,21.3 27.3,14 C27.3,6.6 21.3,0.7 14,0.7 L14,0.7 Z M14,24.4 C8.3,24.4 3.6,19.7 3.6,14 C3.6,8.3 8.3,3.6 14,3.6 C19.7,3.6 24.4,8.3 24.4,14 C24.4,19.7 19.7,24.4 14,24.4 L14,24.4 Z" fill="none" stroke="none" filter="url('#Sivjjwi8ntr6')" style="fill-opacity: 0.8;" class="secondary-fill"></path>
      <path d="M14,4.9 C9,4.9 4.9,9 4.9,14 C4.9,19 9,23.1 14,23.1 C19,23.1 23.1,19 23.1,14 C23.1,9 19,4.9 14,4.9 L14,4.9 Z M18.9,16 C18.9,17.5 18.4,19 16,19 L16,19.8 C16,20.2 15.9,20.5 15.5,20.5 C15.1,20.5 15,20.2 15,19.8 L15,19 L13,19 L13,19.8 C13,20.2 12.9,20.5 12.5,20.5 C12.1,20.5 12,20.2 12,19.8 L12,19 L10.5,19 C10.1,19 9.8,18.9 9.8,18.5 C9.8,18.1 10.1,18 10.5,18 L12,18 L12,10 L10.5,10 C10.1,10 9.8,9.9 9.8,9.5 C9.8,9.1 10.1,9 10.5,9 L12,9 L12,7.8 C12,7.4 12.1,7.1 12.5,7.1 C12.9,7.1 13,7.4 13,7.8 L13,9 L15,9 L15,8 C15,7.6 15.1,7.3 15.5,7.3 C15.9,7.3 16,7.6 16,8 L16,9 C18.3,9 18.9,10.4 18.9,11.5 C18.9,12.4 18.6,13 17.9,13.5 C18.6,14.1 18.9,15.1 18.9,16 L18.9,16 Z" fill="none" stroke="none" filter="url('#Sivjjwi8ntr6')" style="fill-opacity: 0.8;" class="secondary-fill"></path>
    </g></g><g class="highlight"><g fill="#ffffff" fill-rule="evenodd" stroke="#ffffff" style="stroke-width: 2;">
    
    
  </g><g fill="#ffffff" transform="translate(21 21)" stroke="#ffffff" style="stroke-width: 2;">
      <path d="M16.1 10L13 10 13 13 16.1 13C16.9 13 17.8 12.5 17.8 11.5 17.9 10.5 16.9 10 16.1 10L16.1 10zM16.1 14L13 14 13 18 16.1 18C17 18 17.8 16.9 17.8 16 17.8 15.1 17 14 16.1 14L16.1 14z" fill="#ffffff" stroke="#ffffff" style="stroke-width: 2;"></path>
      <path d="M14,0.7 C6.7,0.7 0.7,6.6 0.7,14 C0.7,21.4 6.7,27.3 14,27.3 C21.3,27.3 27.3,21.3 27.3,14 C27.3,6.6 21.3,0.7 14,0.7 L14,0.7 Z M14,24.4 C8.3,24.4 3.6,19.7 3.6,14 C3.6,8.3 8.3,3.6 14,3.6 C19.7,3.6 24.4,8.3 24.4,14 C24.4,19.7 19.7,24.4 14,24.4 L14,24.4 Z" fill="#ffffff" stroke="#ffffff" style="stroke-width: 2;"></path>
      <path d="M14,4.9 C9,4.9 4.9,9 4.9,14 C4.9,19 9,23.1 14,23.1 C19,23.1 23.1,19 23.1,14 C23.1,9 19,4.9 14,4.9 L14,4.9 Z M18.9,16 C18.9,17.5 18.4,19 16,19 L16,19.8 C16,20.2 15.9,20.5 15.5,20.5 C15.1,20.5 15,20.2 15,19.8 L15,19 L13,19 L13,19.8 C13,20.2 12.9,20.5 12.5,20.5 C12.1,20.5 12,20.2 12,19.8 L12,19 L10.5,19 C10.1,19 9.8,18.9 9.8,18.5 C9.8,18.1 10.1,18 10.5,18 L12,18 L12,10 L10.5,10 C10.1,10 9.8,9.9 9.8,9.5 C9.8,9.1 10.1,9 10.5,9 L12,9 L12,7.8 C12,7.4 12.1,7.1 12.5,7.1 C12.9,7.1 13,7.4 13,7.8 L13,9 L15,9 L15,8 C15,7.6 15.1,7.3 15.5,7.3 C15.9,7.3 16,7.6 16,8 L16,9 C18.3,9 18.9,10.4 18.9,11.5 C18.9,12.4 18.6,13 17.9,13.5 C18.6,14.1 18.9,15.1 18.9,16 L18.9,16 Z" fill="#ffffff" stroke="#ffffff" style="stroke-width: 2;"></path>
    </g></g><g class="base"><g fill="none" fill-rule="evenodd" stroke="none" class="main-fill">
    
    
  </g><g fill="none" transform="translate(21 21)" stroke="none" class="main-fill">
      <path d="M16.1 10L13 10 13 13 16.1 13C16.9 13 17.8 12.5 17.8 11.5 17.9 10.5 16.9 10 16.1 10L16.1 10zM16.1 14L13 14 13 18 16.1 18C17 18 17.8 16.9 17.8 16 17.8 15.1 17 14 16.1 14L16.1 14z" fill="none" stroke="none" class="main-fill"></path>
      <path d="M14,0.7 C6.7,0.7 0.7,6.6 0.7,14 C0.7,21.4 6.7,27.3 14,27.3 C21.3,27.3 27.3,21.3 27.3,14 C27.3,6.6 21.3,0.7 14,0.7 L14,0.7 Z M14,24.4 C8.3,24.4 3.6,19.7 3.6,14 C3.6,8.3 8.3,3.6 14,3.6 C19.7,3.6 24.4,8.3 24.4,14 C24.4,19.7 19.7,24.4 14,24.4 L14,24.4 Z" fill="none" stroke="none" class="main-fill"></path>
      <path d="M14,4.9 C9,4.9 4.9,9 4.9,14 C4.9,19 9,23.1 14,23.1 C19,23.1 23.1,19 23.1,14 C23.1,9 19,4.9 14,4.9 L14,4.9 Z M18.9,16 C18.9,17.5 18.4,19 16,19 L16,19.8 C16,20.2 15.9,20.5 15.5,20.5 C15.1,20.5 15,20.2 15,19.8 L15,19 L13,19 L13,19.8 C13,20.2 12.9,20.5 12.5,20.5 C12.1,20.5 12,20.2 12,19.8 L12,19 L10.5,19 C10.1,19 9.8,18.9 9.8,18.5 C9.8,18.1 10.1,18 10.5,18 L12,18 L12,10 L10.5,10 C10.1,10 9.8,9.9 9.8,9.5 C9.8,9.1 10.1,9 10.5,9 L12,9 L12,7.8 C12,7.4 12.1,7.1 12.5,7.1 C12.9,7.1 13,7.4 13,7.8 L13,9 L15,9 L15,8 C15,7.6 15.1,7.3 15.5,7.3 C15.9,7.3 16,7.6 16,8 L16,9 C18.3,9 18.9,10.4 18.9,11.5 C18.9,12.4 18.6,13 17.9,13.5 C18.6,14.1 18.9,15.1 18.9,16 L18.9,16 Z" fill="none" stroke="none" class="main-fill"></path>
    </g></g><style>
          .main-fill {fill: #F6F871;}
          .main-stroke {stroke: #F6F871;}
          .secondary-fill {fill: #B3F871;}
          .secondary-stroke {stroke: #B3F871;}

          .main-fill--darken {fill: #f1f428;}
          .main-stroke--darken {stroke: #f1f428;}
          .secondary-fill--darken {fill: #8cf428;}
          .secondary-stroke--darken {stroke: #8cf428;}

          .main-fill--darkener {fill: #dbdf0b;}
          .main-stroke--darkener {stroke: #dbdf0b;}
          .secondary-fill--darkener {fill: #72df0b;}
          .secondary-stroke--darkener {stroke: #72df0b;}
        </style></svg>